<svg data-v-423bf9ae="" xmlns="http://www.w3.org/2000/svg" viewBox="0 0 166.31335891114128 60" class="font"><!----><!----><defs data-v-423bf9ae=""><linearGradient data-v-423bf9ae="" gradientTransform="rotate(25)" id="bf1d059b-1128-41dd-81df-1529e71e969b" x1="0%" y1="0%" x2="100%" y2="0%"><stop data-v-423bf9ae="" offset="0%" style="stop-color: rgb(73, 36, 126); stop-opacity: 1;"></stop><stop data-v-423bf9ae="" offset="100%" style="stop-color: rgb(170, 73, 199); stop-opacity: 1;"></stop></linearGradient></defs><g data-v-423bf9ae="" id="7791cb47-7649-48a1-87a0-5ca30ce89b3b" fill="url(#bf1d059b-1128-41dd-81df-1529e71e969b)" transform="matrix(4.608294768854844,0,0,4.608294768854844,-2.5806429398835746,-21.47465291969359)"><path d="M0.56 9.10L1.85 9.10L1.85 14.88L3.21 14.88L3.21 9.10L4.89 9.10L4.89 7.88L3.21 7.88L3.21 5.88L4.89 5.88L4.89 4.66L3.47 4.66L1.85 5.60L1.85 7.88L0.56 7.88ZM7.92 7.88L6.57 7.88L6.57 14.88L7.92 14.88ZM6.50 6.16L7.99 6.16L7.99 4.66L6.50 4.66ZM11.79 14.88L13.20 14.88L13.20 13.66L11.52 13.66L11.52 4.66L10.16 4.66L10.16 13.94ZM20.13 13.66L15.96 13.66L15.96 11.86L20.13 11.86L20.13 8.75L18.51 7.81L16.23 7.81L14.60 8.75L14.60 13.94L16.23 14.88L20.13 14.88ZM15.96 9.03L18.77 9.03L18.77 10.64L15.96 10.64ZM22.37 14.01L24.00 14.95L25.97 14.95L26.96 14.38L27.30 14.95L28.32 14.95L28.32 7.88L26.96 7.88L26.96 13.73L23.73 13.73L23.73 7.88L22.37 7.88ZM35.03 14.95L36.65 14.01L36.65 8.75L35.03 7.81L32.91 7.81L31.92 8.39L31.58 7.81L30.56 7.81L30.56 17.68L31.92 17.68L31.92 14.38L32.91 14.95ZM31.92 9.03L35.29 9.03L35.29 13.73L31.92 13.73Z"></path></g><!----><!----></svg>